<svg id="Layer_1" data-name="Layer 1" xmlns="http://www.w3.org/2000/svg" viewBox="0 0 36.43 37.07"><defs><style>.cls-1{fill:#007bff;}</style></defs><title>text-hover</title><path class="cls-1" d="M26.76,13.18H20.58V27.55h-4.7V13.18H9.66V9.52h17.1Z"/><polygon class="cls-1" points="36.43 37.07 27.93 37.07 27.93 32.07 31.43 32.07 31.43 28.57 36.43 28.57 36.43 37.07"/><rect class="cls-1" x="14.97" y="32.07" width="6.48" height="5"/><polygon class="cls-1" points="8.5 37.07 0 37.07 0 28.57 5 28.57 5 32.07 8.5 32.07 8.5 37.07"/><rect class="cls-1" y="15.19" width="5" height="6.69"/><polygon class="cls-1" points="5 8.5 0 8.5 0 0 8.5 0 8.5 5 5 5 5 8.5"/><rect class="cls-1" x="14.98" width="6.48" height="5"/><polygon class="cls-1" points="36.43 8.5 31.43 8.5 31.43 5 27.93 5 27.93 0 36.43 0 36.43 8.5"/><rect class="cls-1" x="31.43" y="15.19" width="5" height="6.69"/></svg>